<?xml version="1.0" standalone="no"?>
<!DOCTYPE svg PUBLIC "-//W3C//DTD SVG 20010904//EN"
 "http://www.w3.org/TR/2001/REC-SVG-20010904/DTD/svg10.dtd">
<svg version="1.0" xmlns="http://www.w3.org/2000/svg"
 width="512.000000pt" height="512.000000pt" viewBox="0 0 512.000000 512.000000"
 preserveAspectRatio="xMidYMid meet">

<g transform="translate(0.000000,512.000000) scale(0.100000,-0.100000)"
fill="#000000" stroke="none">
<path d="M2052 5100 c-121 -32 -186 -73 -297 -185 -110 -111 -164 -143 -275
-165 -256 -48 -436 -224 -485 -475 -25 -127 -51 -172 -162 -282 -135 -133
-181 -219 -203 -376 -13 -86 0 -184 36 -287 35 -100 33 -186 -7 -309 -26 -79
-31 -113 -32 -191 -1 -179 56 -304 204 -450 106 -103 139 -157 158 -255 29
-147 71 -233 157 -325 29 -31 44 -55 41 -65 -4 -8 -150 -264 -327 -570 -247
-428 -320 -562 -320 -588 0 -40 35 -83 75 -93 18 -4 117 18 316 71 159 43 291
76 294 74 2 -3 38 -133 80 -289 69 -259 79 -288 107 -314 26 -24 37 -27 71
-23 22 3 47 13 56 21 8 9 173 289 366 622 l350 606 70 18 c39 10 90 26 114 34
64 23 177 21 253 -6 35 -12 88 -27 118 -33 l54 -11 351 -607 c193 -334 358
-614 366 -623 9 -8 34 -18 56 -21 34 -4 45 -1 71 23 28 26 38 55 107 314 42
156 78 286 80 289 3 2 135 -31 294 -74 199 -53 298 -75 316 -71 40 10 75 53
75 93 0 26 -75 163 -329 604 l-330 570 50 51 c68 72 114 166 149 304 36 141
62 185 167 280 84 77 131 146 171 252 22 57 26 84 26 182 1 104 -2 124 -33
215 -28 86 -32 110 -28 170 2 39 17 106 32 150 52 151 42 311 -27 453 -24 50
-58 93 -136 172 -119 121 -145 165 -172 293 -54 255 -222 423 -477 477 -128
27 -172 53 -293 172 -79 78 -122 112 -172 136 -142 69 -302 79 -453 27 -124
-42 -200 -44 -315 -6 -127 43 -253 50 -358 21z m308 -216 c65 -24 91 -27 195
-28 109 -1 127 2 200 29 66 24 95 30 165 29 132 0 184 -24 295 -139 137 -141
216 -187 385 -222 182 -37 286 -141 323 -323 35 -169 81 -248 222 -385 115
-111 139 -163 139 -295 1 -70 -5 -99 -29 -165 -26 -71 -29 -92 -29 -195 -1
-103 3 -125 32 -213 37 -113 41 -178 13 -265 -24 -78 -46 -108 -157 -217 -109
-107 -154 -187 -185 -329 -27 -120 -48 -165 -108 -229 -62 -66 -130 -100 -241
-122 -142 -28 -218 -71 -337 -191 -113 -114 -166 -147 -264 -164 -69 -12 -116
-5 -264 39 -110 33 -230 29 -352 -11 -123 -40 -217 -42 -308 -8 -50 19 -79 42
-170 132 -127 126 -213 176 -350 203 -205 41 -310 146 -350 350 -27 136 -77
222 -203 350 -90 91 -113 120 -132 170 -34 91 -32 185 8 308 40 122 44 242 11
352 -44 148 -51 195 -39 264 17 97 49 149 164 263 120 120 164 197 192 338 21
109 59 183 123 243 63 59 108 80 228 106 145 32 211 69 329 188 101 101 163
143 241 163 61 15 170 4 253 -26z m-880 -3261 c115 -23 163 -52 272 -163 85
-87 109 -105 187 -142 66 -31 89 -47 85 -58 -9 -25 -509 -890 -514 -890 -3 0
-30 91 -59 203 -30 111 -60 215 -68 230 -8 15 -29 35 -47 43 -31 15 -40 14
-257 -44 -123 -33 -225 -59 -227 -58 -1 2 79 144 179 317 100 173 217 376 261
452 63 109 84 137 97 132 9 -4 50 -14 91 -22z m2531 -427 c143 -247 258 -450
257 -452 -2 -1 -102 24 -223 57 -121 33 -230 57 -242 54 -57 -14 -70 -40 -130
-268 -32 -119 -60 -217 -63 -217 -5 0 -505 864 -514 890 -5 11 16 25 76 53 69
33 97 54 186 144 116 117 158 142 287 168 44 9 82 19 84 21 3 2 9 3 14 1 5 -1
125 -205 268 -451z"/>
<path d="M2495 4427 c-17 -14 -28 -36 -32 -63 -5 -36 -1 -46 25 -75 25 -28 37
-34 72 -34 35 0 47 6 72 34 26 29 30 39 25 75 -7 54 -44 86 -97 86 -26 0 -48
-8 -65 -23z"/>
<path d="M1983 4316 c-388 -195 -642 -546 -710 -981 -19 -125 -12 -332 16
-455 103 -452 426 -814 858 -958 304 -102 631 -89 924 37 346 150 603 431 724
794 173 521 -16 1114 -460 1445 -87 65 -296 172 -335 172 -19 0 -42 -11 -62
-29 -27 -24 -33 -36 -33 -69 0 -54 22 -76 122 -123 409 -195 654 -605 630
-1054 -22 -396 -248 -742 -602 -920 -325 -163 -665 -163 -990 0 -475 238 -708
777 -559 1291 48 168 131 309 258 442 104 108 187 170 311 231 119 59 140 78
140 132 0 48 -35 87 -86 95 -28 5 -54 -4 -146 -50z"/>
<path d="M2678 3583 l-227 -227 -113 110 c-121 118 -148 133 -203 109 -38 -16
-360 -342 -370 -373 -4 -13 -4 -35 0 -50 7 -31 592 -624 639 -649 62 -32 62
-32 518 425 286 286 429 436 434 455 3 15 1 40 -5 56 -7 15 -90 105 -185 199
-171 171 -173 172 -217 172 l-44 0 -227 -227z m354 -90 c43 -43 78 -82 78 -88
0 -13 -652 -665 -665 -665 -13 0 -435 422 -435 435 0 6 36 46 80 90 l80 80
108 -107 c116 -116 147 -135 196 -118 20 6 112 90 251 230 121 121 222 220
225 220 2 0 40 -35 82 -77z"/>
</g>
</svg>
