<?xml version="1.0" standalone="no"?>
<!DOCTYPE svg PUBLIC "-//W3C//DTD SVG 20010904//EN"
 "http://www.w3.org/TR/2001/REC-SVG-20010904/DTD/svg10.dtd">
<svg version="1.0" xmlns="http://www.w3.org/2000/svg"
 width="512.000000pt" height="512.000000pt" viewBox="0 0 512.000000 512.000000"
 preserveAspectRatio="xMidYMid meet">

<g transform="translate(0.000000,512.000000) scale(0.100000,-0.100000)"
fill="#000000" stroke="none">
<path d="M383 5105 c-182 -49 -320 -189 -368 -372 -22 -84 -22 -1022 0 -1106
48 -185 187 -324 372 -372 85 -22 1387 -22 1481 0 135 32 256 121 322 238 l32
57 199 0 c251 0 279 11 279 106 0 36 -11 50 -219 258 l-219 221 -5 285 c-4
251 -7 292 -24 345 -59 174 -189 296 -364 339 -57 14 -152 16 -750 15 -555 0
-694 -3 -736 -14z m1492 -213 c66 -30 128 -93 157 -156 21 -49 23 -66 28 -368
l5 -318 150 -150 150 -150 -120 0 c-152 0 -171 -10 -204 -101 -18 -49 -37 -77
-80 -119 -96 -95 -57 -91 -851 -88 -677 3 -686 3 -731 24 -60 28 -125 93 -153
153 -20 45 -21 59 -24 531 -2 332 0 501 8 537 21 98 96 181 195 215 46 16 105
17 735 15 l685 -2 50 -23z"/>
<path d="M1143 4765 c-145 -45 -245 -171 -247 -311 -1 -52 3 -66 22 -87 29
-31 68 -39 107 -23 42 18 53 35 65 95 18 96 82 150 163 137 161 -26 172 -235
14 -286 -45 -14 -93 -52 -112 -91 -20 -39 -20 -152 1 -184 9 -13 31 -29 50
-35 28 -10 40 -9 72 7 30 15 40 27 53 67 14 42 23 52 60 70 58 27 129 99 159
161 34 69 36 216 4 286 -26 56 -85 123 -136 156 -77 48 -193 64 -275 38z"/>
<path d="M1200 3779 c-52 -20 -76 -90 -50 -140 13 -24 61 -49 94 -49 33 0 82
43 89 77 7 40 -16 89 -52 107 -34 18 -46 19 -81 5z"/>
<path d="M3543 5106 c-131 -32 -262 -132 -328 -251 -63 -112 -67 -145 -63
-528 3 -301 6 -348 22 -392 32 -88 66 -154 107 -205 21 -27 39 -51 39 -53 0
-3 -27 -7 -59 -11 -230 -26 -465 -163 -611 -357 -71 -94 -119 -191 -156 -314
-27 -88 -28 -98 -32 -388 -3 -215 0 -306 8 -327 24 -58 37 -60 488 -60 266 0
420 4 440 11 53 18 79 88 52 140 -26 47 -46 49 -430 49 l-362 0 4 233 c4 207
7 239 27 302 37 115 90 204 169 287 111 117 235 187 384 219 l50 11 227 -226
c226 -225 228 -226 271 -226 43 0 45 1 271 226 l227 226 52 -11 c232 -50 437
-222 526 -441 42 -104 54 -193 54 -406 l0 -194 -384 0 -384 0 -30 -25 c-36
-30 -45 -69 -27 -112 27 -64 27 -64 520 -61 l445 3 27 28 28 27 3 258 c2 157
-1 288 -8 336 -44 307 -230 565 -505 703 -79 40 -207 80 -283 89 -34 3 -62 8
-62 10 0 2 16 25 37 51 50 67 100 176 118 258 19 92 22 1038 3 1080 -24 54
-35 55 -445 54 -267 0 -393 -4 -430 -13z m687 -324 c0 -128 -2 -142 -25 -189
-31 -62 -82 -99 -154 -113 -30 -5 -199 -10 -377 -10 l-324 0 0 95 c0 116 24
188 83 252 87 95 119 102 490 102 l307 1 0 -138z m0 -579 c0 -140 -16 -227
-51 -289 -110 -191 -318 -277 -523 -214 -119 37 -238 151 -282 270 -11 29 -18
89 -21 172 l-5 126 373 4 374 4 60 26 c33 14 63 26 68 27 4 0 7 -56 7 -126z
m-230 -731 c0 -4 -47 -54 -105 -112 l-105 -105 -105 105 c-58 58 -105 108
-105 112 0 5 95 8 210 8 116 0 210 -3 210 -8z"/>
<path d="M1101 2889 c-185 -36 -361 -211 -400 -397 -17 -83 -14 -640 4 -727
18 -83 68 -191 119 -258 21 -27 36 -50 34 -51 -2 -1 -39 -8 -83 -15 -180 -29
-340 -110 -478 -241 -100 -95 -150 -163 -208 -283 -74 -157 -82 -203 -87 -543
l-4 -302 30 -33 30 -34 1259 -3 c934 -2 1265 1 1286 9 57 24 59 41 55 373 -4
293 -5 303 -32 391 -108 359 -387 609 -743 666 -43 7 -80 14 -81 15 -2 1 15
26 37 54 53 67 99 164 116 248 19 87 22 1046 4 1086 -25 54 -44 56 -446 55
-202 -1 -388 -5 -412 -10z m667 -342 c-3 -148 -4 -155 -30 -195 -15 -22 -49
-54 -75 -69 l-48 -28 -362 -3 -363 -3 0 89 c0 146 41 238 137 306 71 50 110
55 441 55 l303 1 -3 -153z m-13 -760 c-76 -299 -435 -426 -684 -243 -126 93
-181 216 -181 409 l0 97 333 0 c338 0 429 7 502 39 l40 17 3 -129 c2 -93 -2
-147 -13 -190z m-215 -535 c0 -4 -47 -54 -105 -112 l-105 -105 -105 105 c-58
58 -105 108 -105 112 0 5 95 8 210 8 116 0 210 -3 210 -8z m-480 -227 c225
-224 227 -225 270 -225 43 0 45 1 271 226 l227 226 81 -21 c134 -33 232 -90
336 -195 98 -98 145 -174 186 -301 20 -63 23 -95 27 -303 l4 -232 -1131 0
-1131 0 0 100 0 100 215 0 c173 0 222 3 245 15 35 18 50 43 50 85 0 42 -15 67
-50 85 -23 12 -72 15 -243 15 l-215 0 13 68 c28 148 93 263 215 383 89 86 197
149 312 179 40 10 77 19 83 19 5 1 111 -100 235 -224z"/>
<path d="M968 584 c-35 -18 -48 -43 -48 -89 0 -65 69 -110 131 -85 39 16 59
46 59 88 0 44 -14 68 -50 87 -36 19 -57 18 -92 -1z"/>
<path d="M3741 2406 c-56 -31 -66 -99 -22 -148 39 -44 98 -46 138 -5 78 78
-19 207 -116 153z"/>
<path d="M3248 1864 c-131 -31 -253 -123 -318 -237 l-32 -57 -199 0 c-251 0
-279 -11 -279 -106 0 -36 11 -50 219 -258 l219 -221 5 -285 c4 -251 7 -292 24
-345 59 -174 189 -296 364 -339 94 -23 1393 -24 1482 -1 185 48 324 187 372
372 22 84 22 1022 0 1106 -48 185 -187 324 -372 372 -81 21 -1397 21 -1485 -1z
m1493 -210 c60 -28 125 -93 153 -153 21 -45 21 -55 21 -561 0 -506 0 -516 -21
-561 -28 -60 -93 -125 -153 -153 -46 -21 -51 -21 -741 -21 -661 0 -697 1 -745
19 -65 25 -137 94 -166 159 -22 50 -24 65 -29 369 l-5 318 -150 150 -150 150
120 0 c152 0 171 10 204 101 18 49 36 77 80 119 95 94 51 89 846 87 683 -2
690 -2 736 -23z"/>
<path d="M4181 1086 l-146 -145 -77 75 c-69 66 -82 74 -115 74 -63 -1 -110
-55 -99 -114 5 -24 37 -63 129 -154 173 -170 148 -174 385 61 101 100 190 194
198 209 22 42 17 76 -15 109 -23 23 -38 29 -72 29 -41 0 -47 -4 -188 -144z"/>
</g>
</svg>
