<?xml version="1.0" standalone="no"?>
<!DOCTYPE svg PUBLIC "-//W3C//DTD SVG 20010904//EN"
 "http://www.w3.org/TR/2001/REC-SVG-20010904/DTD/svg10.dtd">
<svg version="1.0" xmlns="http://www.w3.org/2000/svg"
 width="512.000000pt" height="512.000000pt" viewBox="0 0 512.000000 512.000000"
 preserveAspectRatio="xMidYMid meet">

<g transform="translate(0.000000,512.000000) scale(0.100000,-0.100000)"
fill="#000000" stroke="none">
<path d="M2615 5083 c-185 -22 -370 -90 -518 -190 -72 -50 -179 -144 -206
-182 l-21 -29 55 -47 55 -48 40 45 c124 141 340 257 549 293 411 72 835 -143
1024 -520 156 -313 132 -686 -63 -976 -59 -88 -180 -207 -267 -263 -88 -56
-203 -110 -214 -99 -15 15 -47 165 -60 273 -12 106 -7 326 9 384 7 26 15 31
63 41 236 48 363 310 253 527 -50 99 -134 166 -244 194 -198 50 -402 -79 -450
-285 -35 -148 45 -323 182 -398 l50 -28 -6 -53 c-27 -237 -10 -476 50 -679 5
-18 1 -22 -28 -29 -18 -4 -87 -7 -153 -7 -194 2 -368 56 -535 169 -38 25 -73
44 -77 42 -5 -1 -389 -232 -854 -511 l-846 -508 -126 78 -126 78 -1 222 0 222
77 46 c75 46 78 47 103 31 80 -53 159 -66 245 -42 118 35 206 165 192 286 l-6
46 56 33 55 33 65 -33 c81 -41 161 -45 238 -10 104 46 159 131 160 249 l1 73
148 90 c81 49 150 89 154 89 4 0 20 -37 36 -83 15 -45 45 -114 66 -152 l38
-71 -549 -329 c-302 -182 -549 -333 -549 -337 0 -3 15 -32 32 -62 21 -36 38
-55 48 -53 15 4 1198 712 1213 727 5 4 -10 38 -34 76 -112 183 -164 335 -176
509 -10 162 33 366 107 503 l28 52 -51 33 c-29 18 -57 36 -64 40 -16 10 -82
-120 -117 -233 -37 -114 -59 -267 -54 -370 l4 -85 -238 -144 c-131 -79 -238
-147 -238 -151 0 -5 11 -28 25 -51 14 -24 25 -58 25 -75 0 -46 -38 -96 -87
-113 -60 -21 -108 -1 -148 62 -16 25 -33 47 -37 47 -6 0 -337 -196 -347 -206
-2 -2 8 -26 22 -53 32 -58 34 -95 7 -138 -54 -89 -167 -80 -222 16 -13 23 -25
41 -28 41 -3 0 -82 -46 -175 -102 l-170 -103 -3 -305 -2 -305 192 -120 c105
-66 198 -121 205 -123 9 -3 1325 780 1685 1002 13 8 39 -1 117 -42 184 -97
335 -134 536 -133 66 0 144 5 174 11 30 5 55 9 56 8 38 -65 77 -117 115 -151
l48 -43 -679 -528 c-373 -290 -679 -530 -679 -534 0 -7 230 -305 255 -331 11
-11 32 1 132 78 l118 92 3 -265 2 -266 75 0 75 0 0 328 1 327 177 136 c97 75
290 225 429 332 l252 196 428 -332 428 -333 3 -702 2 -702 -229 0 -230 0 -3
218 -3 218 -32 65 c-42 84 -108 150 -191 191 -63 31 -72 33 -177 33 -101 0
-115 -3 -167 -29 -75 -37 -135 -91 -175 -157 -52 -87 -63 -149 -63 -356 l0
-183 -225 0 -225 0 0 300 0 300 -75 0 -75 0 0 -375 0 -375 1005 0 1005 0 0
715 c0 393 3 715 8 715 4 0 59 -40 122 -90 63 -49 118 -90 121 -90 4 0 66 79
139 176 109 145 130 179 118 189 -7 7 -161 126 -343 265 -181 139 -346 266
-366 281 l-36 29 -46 -59 -46 -58 314 -243 c173 -133 317 -246 320 -251 5 -8
-71 -119 -81 -119 -3 0 -274 209 -604 465 -329 256 -606 468 -614 471 -9 4
-97 -58 -238 -167 -123 -96 -395 -308 -606 -471 -211 -164 -386 -298 -390
-298 -9 1 -82 96 -82 107 1 4 295 236 655 516 l654 507 267 -206 c146 -113
271 -207 278 -210 15 -6 101 105 90 115 -5 5 -116 90 -246 190 l-237 181 48
48 c124 124 212 362 228 617 5 81 12 115 39 181 117 285 116 594 -2 877 -100
239 -315 460 -556 572 -175 80 -406 119 -583 98z m468 -759 l37 -18 -49 -50
c-75 -78 -125 -165 -174 -308 -10 -28 -27 -22 -71 25 -89 92 -87 216 4 307 25
25 61 51 80 57 46 16 126 10 173 -13z m118 -240 c-15 -66 -59 -127 -110 -154
-22 -11 -42 -20 -45 -20 -8 0 19 70 48 129 15 28 43 70 63 92 32 35 38 38 46
23 6 -11 5 -35 -2 -70z m324 -968 c-64 -222 -174 -348 -280 -322 -28 7 -86 55
-115 97 l-21 28 83 39 c108 50 209 117 289 191 35 32 65 58 67 56 1 -1 -9 -41
-23 -89z m-118 -2379 c41 -22 99 -86 119 -132 14 -32 19 -78 22 -232 l4 -193
-261 0 -261 0 0 178 c0 196 9 248 54 307 70 91 222 125 323 72z"/>
<path d="M4370 3628 c-142 -261 -110 -228 -339 -353 -110 -60 -201 -112 -201
-115 0 -3 91 -55 201 -115 163 -89 206 -117 224 -145 12 -19 64 -113 116 -207
51 -95 96 -173 99 -173 3 0 55 91 115 201 89 163 117 206 145 224 19 11 113
64 208 115 94 52 172 97 172 101 0 3 -78 48 -172 99 -260 141 -228 110 -353
339 -60 110 -112 201 -115 201 -3 0 -48 -78 -100 -172z m161 -240 l56 -103
107 -60 c58 -33 106 -62 106 -65 0 -3 -33 -23 -72 -45 -136 -72 -139 -75 -198
-184 -30 -55 -57 -101 -60 -101 -3 0 -23 33 -45 73 -73 136 -75 138 -184 197
-55 30 -101 57 -101 60 0 3 33 23 73 45 135 72 138 75 197 184 30 55 57 101
60 101 3 0 30 -46 61 -102z"/>
<path d="M477 2604 l-58 -36 31 -51 c17 -29 34 -58 38 -65 7 -10 23 -5 70 24
34 20 62 39 62 41 0 10 -73 123 -79 123 -3 0 -32 -17 -64 -36z"/>
<path d="M927 1899 c-13 -24 -66 -119 -116 -210 l-91 -167 -206 -112 c-171
-93 -204 -115 -191 -125 8 -6 101 -58 207 -115 l191 -105 111 -203 c61 -111
114 -204 117 -206 4 -3 58 89 120 202 l113 207 210 114 209 114 -28 16 c-15
10 -110 62 -210 116 -181 98 -183 100 -212 155 -17 30 -68 124 -114 209 l-85
153 -25 -43z m226 -529 c45 -24 95 -51 110 -61 l29 -17 -110 -58 -110 -59 -58
-107 c-32 -58 -62 -104 -66 -102 -3 2 -31 50 -62 107 l-54 102 -92 50 c-140
75 -138 64 -17 129 l106 57 42 77 c23 42 51 92 62 110 l20 34 59 -109 59 -108
82 -45z"/>
<path d="M2880 1455 l0 -405 405 0 405 0 0 405 0 405 -405 0 -405 0 0 -405z
m330 0 l0 -255 -90 0 -90 0 0 255 0 255 90 0 90 0 0 -255z m340 0 l0 -255 -95
0 -95 0 0 255 0 255 95 0 95 0 0 -255z"/>
</g>
</svg>
